:SAMPLES-PER-SECOND 30
:FULLY-SPECIFIED
:DEGREES
227
root  -4.29975 40.8738 0.364605 -3.76968 -79.7683 4.2476
RightUpLeg  8.82236 -2.9909 -2.19402
RightLeg  -5.48775 -27.5793 3.20194
RightFoot  -2.03578 -0.356609 4.22916
RightToes  -3.11842e-008 1.75238e-005 3.56266e-009
Spine  -3.58321 2.68175 -1.69257
Spine1  -0.586772 3.09653 -1.49718
HEad  -24.3717 -9.88759 1.73048
LeftShoulder1  2.50481 -5.86048 -20.3235
LeftArm  -45.8867 -16.777 -20.7049
LeftForeArm  144.261 -70.2812 -149.457
LeftHand  -0.411506 -5.29598 4.77855
RightShoulder  2.81924 6.73252 21.2494
RightArm  -24.6794 26.8839 21.4919
RightForeArm  98.75 73.1222 136.832
RightHand  -0.239796 6.57595 -2.66358
LeftUpLeg  3.25684 1.35005 2.13691
LeftLeg  -1.69513 4.2249 -0.919219
LeftFoot  -0.719576 0.172987 -1.8936
LeftToes  4.7713e-008 1.46693e-008 1.32589e-009
228
root  -4.41024 40.8663 0.372518 -3.70264 -80.1921 3.8942
RightUpLeg  9.32529 -2.99058 -2.15033
RightLeg  -5.63063 -27.1891 3.25942
RightFoot  -2.06218 -0.355019 4.21103
RightToes  -3.11842e-008 1.75238e-005 3.56266e-009
Spine  -3.15193 2.15538 -1.91097
Spine1  -2.25571 2.54531 -1.59928
HEad  -24.057 -8.82512 1.32633
LeftShoulder1  2.55497 -6.20335 -19.8662
LeftArm  -44.2152 -22.6973 -21.4612
LeftForeArm  143.202 -70.2861 -149.3
LeftHand  -0.536762 -5.80304 5.88483
RightShoulder  2.78147 6.82592 20.5872
RightArm  -29.4684 29.1273 19.9426
RightForeArm  101.793 72.3528 139.322
RightHand  -0.284264 6.78116 -3.05198
LeftUpLeg  3.75677 1.52088 2.26096
LeftLeg  -1.60719 4.48858 -0.915112
LeftFoot  -0.972275 0.174753 -1.92668
LeftToes  4.7713e-008 1.46693e-008 1.32589e-009
229
root  -4.52058 40.8574 0.382206 -3.71931 -80.7222 3.70096
RightUpLeg  9.63116 -3.03258 -2.15241
RightLeg  -5.54446 -26.6859 3.21281
RightFoot  -2.1447 -0.351191 4.17032
RightToes  -3.11842e-008 1.75238e-005 3.56266e-009
Spine  -3.15189 1.70226 -1.68367
Spine1  -3.40529 2.14807 -2.28954
HEad  -23.8865 -8.66128 0.936771
LeftShoulder1  2.59457 -6.57001 -19.2573
LeftArm  -43.0606 -28.242 -22.4466
LeftForeArm  143.17 -70.6746 -148.661
LeftHand  -0.574711 -6.45311 5.91754
RightShoulder  2.73159 6.82342 20.0667
RightArm  -34.4407 31.9455 18.9048
RightForeArm  104.847 71.6234 141.478
RightHand  -0.197222 6.52731 -2.26401
LeftUpLeg  4.21447 1.63355 2.34546
LeftLeg  -1.551 4.83805 -0.895213
LeftFoot  -1.22055 0.172191 -1.89748
LeftToes  4.7713e-008 1.46693e-008 1.32589e-009
230
root  -4.67458 40.844 0.384613 -4.02298 -81.6328 3.71223
RightUpLeg  9.95911 -3.03289 -2.15206
RightLeg  -5.22725 -25.8386 2.95207
RightFoot  -2.34987 -0.349741 4.17827
RightToes  -3.11842e-008 1.75238e-005 3.56266e-009
Spine  -3.83751 1.65607 -1.75911
Spine1  -3.61637 2.0905 -2.21284
HEad  -23.7844 -8.34845 1.00079
LeftShoulder1  2.71451 -7.06838 -19.1719
LeftArm  -42.1336 -33.3107 -23.9806
LeftForeArm  144.446 -70.6666 -148.854
LeftHand  -0.319429 -5.24973 3.82952
RightShoulder  2.53715 6.56838 18.7186
RightArm  -38.9233 34.7195 18.7731
RightForeArm  109.108 70.8263 143.734
RightHand  -0.228085 6.92334 -2.50117
LeftUpLeg  4.94879 1.78349 2.42359
LeftLeg  -1.63091 5.60423 -0.913269
LeftFoot  -1.54153 0.174241 -1.94552
LeftToes  4.7713e-008 1.46693e-008 1.32589e-009
231
root  -4.85627 40.8369 0.391588 -4.15955 -82.352 3.51886
RightUpLeg  10.5439 -3.02822 -2.12714
RightLeg  -5.25969 -25.1126 2.84901
RightFoot  -2.40489 -0.355453 4.30867
RightToes  -3.11842e-008 1.75238e-005 3.56266e-009
Spine  -4.13222 1.44207 -1.97219
Spine1  -4.42085 1.83832 -1.97844
HEad  -24.0741 -7.8811 0.278967
LeftShoulder1  2.86441 -7.63811 -19.2088
LeftArm  -41.7258 -36.181 -24.8635
LeftForeArm  148.646 -70.3549 -149.953
LeftHand  -0.401348 -6.29737 4.27549
RightShoulder  2.49832 6.58038 18.2639
RightArm  -42.6517 37.2343 17.9616
RightForeArm  113.506 69.7876 146.239
RightHand  -0.286892 8.1091 -2.84067
LeftUpLeg  5.75978 1.96474 2.54295
LeftLeg  -1.74052 6.12031 -0.943174
LeftFoot  -1.82343 0.173707 -1.95944
LeftToes  4.7713e-008 1.46693e-008 1.32589e-009
232
root  -5.03012 40.8239 0.393789 -4.77458 -82.9953 3.82298
RightUpLeg  11.1386 -2.98953 -2.11706
RightLeg  -5.36266 -24.5596 2.70277
RightFoot  -2.49504 -0.359569 4.42515
RightToes  -3.11842e-008 1.75238e-005 3.56266e-009
Spine  -4.67478 1.27412 -1.99855
Spine1  -4.59035 1.6751 -1.94906
HEad  -23.9257 -7.40833 0.430358
LeftShoulder1  2.87625 -7.76056 -19.0217
LeftArm  -41.4735 -38.5351 -26.639
LeftForeArm  154.333 -69.9038 -151.416
LeftHand  -0.609542 -7.87903 5.71169
RightShoulder  2.43826 6.57334 17.6377
RightArm  -46.016 39.3447 17.3463
RightForeArm  117.598 68.384 149.038
RightHand  -0.367287 8.04858 -3.53571
LeftUpLeg  6.48749 2.02989 2.54809
LeftLeg  -1.75969 6.70365 -0.916584
LeftFoot  -2.09791 0.173044 -2.00241
LeftToes  4.7713e-008 1.46693e-008 1.32589e-009
233
root  -5.19084 40.8057 0.391545 -5.84053 -83.4472 4.46712
RightUpLeg  11.7303 -3.13878 -2.25049
RightLeg  -5.14848 -23.902 2.5415
RightFoot  -2.71758 -0.355528 4.46657
RightToes  -3.11842e-008 1.75238e-005 3.56266e-009
Spine  -5.50458 0.997235 -1.97373
Spine1  -4.14954 1.45119 -2.14131
HEad  -24.373 -6.63964 0.785286
LeftShoulder1  2.90438 -7.97478 -18.7699
LeftArm  -41.5933 -40.2381 -28.5966
LeftForeArm  156.272 -68.9181 -153.052
LeftHand  -0.487122 -6.73425 4.98681
RightShoulder  2.42411 6.59735 17.4186
RightArm  -48.2155 40.9467 17.0137
RightForeArm  122.368 66.9605 151.564
RightHand  -0.433193 8.92749 -3.89485
LeftUpLeg  7.27937 1.96657 2.43218
LeftLeg  -1.74736 7.27382 -0.770387
LeftFoot  -2.35555 0.1632 -1.8866
LeftToes  4.7713e-008 1.46693e-008 1.32589e-009
234
root  -5.3444 40.7861 0.388523 -7.22122 -84.0479 5.22169
RightUpLeg  12.4079 -3.35309 -2.44628
RightLeg  -4.67237 -22.9837 2.28424
RightFoot  -3.04373 -0.351544 4.55684
RightToes  -3.11842e-008 1.75238e-005 3.56266e-009
Spine  -6.08072 0.901507 -2.13285
Spine1  -3.50862 1.3681 -1.96804
HEad  -24.5496 -6.03028 1.06605
LeftShoulder1  2.98429 -8.18988 -19.0065
LeftArm  -41.9421 -40.9398 -29.4666
LeftForeArm  155.252 -67.8625 -154.259
LeftHand  -0.345109 -5.40214 4.05167
RightShoulder  2.3231 6.25415 17.2148
RightArm  -49.2454 42.3276 17.5239
RightForeArm  127.552 65.1434 154.296
RightHand  -0.441811 9.11886 -3.91753
LeftUpLeg  8.27094 2.06607 2.41017
LeftLeg  -1.69614 7.71301 -0.724622
LeftFoot  -2.68242 0.166021 -1.96024
LeftToes  4.7713e-008 1.46693e-008 1.32589e-009
235
root  -5.44746 40.7742 0.387614 -8.61821 -84.5064 5.99574
RightUpLeg  13.1234 -3.53325 -2.62295
RightLeg  -4.4558 -22.2675 2.12595
RightFoot  -3.17988 -0.354716 4.6646
RightToes  -3.11842e-008 1.75238e-005 3.56266e-009
Spine  -6.23875 0.808502 -2.20299
Spine1  -3.28858 1.27384 -1.83628
HEad  -24.4643 -6.08159 1.00804
LeftShoulder1  3.02129 -8.28272 -19.1275
LeftArm  -41.2871 -40.7552 -30.9853
LeftForeArm  154.966 -66.6799 -155.598
LeftHand  -0.471678 -5.15273 5.42865
RightShoulder  2.43017 6.59612 17.4907
RightArm  -49.5448 42.2628 17.3974
RightForeArm  132.075 63.198 156.726
RightHand  -0.572424 9.2451 -4.91578
LeftUpLeg  9.20458 2.0705 2.32919
LeftLeg  -1.75589 8.17068 -0.622955
LeftFoot  -2.87332 0.176158 -2.14361
LeftToes  4.7713e-008 1.46693e-008 1.32589e-009
236
root  -5.51584 40.7559 0.378598 -9.29878 -84.8309 5.983
RightUpLeg  13.8551 -3.64676 -2.67382
RightLeg  -4.21152 -21.7697 1.96547
RightFoot  -3.37936 -0.353043 4.73836
RightToes  -3.11842e-008 1.75238e-005 3.56266e-009
Spine  -6.68005 0.761521 -2.31206
Spine1  -2.13925 1.21709 -1.51375
HEad  -24.6822 -6.06943 1.43444
LeftShoulder1  3.08235 -8.28875 -19.6713
LeftArm  -39.7287 -40.1271 -31.9305
LeftForeArm  156.58 -65.7318 -156.788
LeftHand  -0.753888 -6.05481 7.99455
RightShoulder  2.48234 6.68134 17.8271
RightArm  -49.0795 41.8624 17.6076
RightForeArm  135.286 61.1567 158.809
RightHand  -0.764955 9.54624 -6.32401
LeftUpLeg  10.0477 2.16253 2.35796
LeftLeg  -1.62164 8.40123 -0.513039
LeftFoot  -3.12783 0.16972 -2.07679
LeftToes  4.7713e-008 1.46693e-008 1.32589e-009
237
root  -5.52629 40.7415 0.360641 -9.12047 -84.9901 5.4335
RightUpLeg  14.0313 -3.69767 -2.63484
RightLeg  -3.70703 -21.5501 1.77086
RightFoot  -3.6312 -0.344953 4.74803
RightToes  -3.11842e-008 1.75238e-005 3.56266e-009
Spine  -6.77453 0.73811 -2.4136
Spine1  -1.58862 1.1613 -1.25259
HEad  -24.8613 -5.76962 2.00171
LeftShoulder1  3.15245 -8.26116 -20.3737
LeftArm  -37.4573 -39.2157 -33.337
LeftForeArm  157.338 -64.9208 -157.67
LeftHand  -0.677385 -5.6463 7.43071
RightShoulder  2.59253 6.8707 18.4945
RightArm  -47.881 40.6486 17.7773
RightForeArm  135.946 59.0442 160.48
RightHand  -0.907305 9.39427 -7.49176
LeftUpLeg  10.2645 2.28878 2.47512
LeftLeg  -1.15794 8.41576 -0.417617
LeftFoot  -3.38613 0.166012 -2.05601
LeftToes  4.7713e-008 1.46693e-008 1.32589e-009
